%TF.GenerationSoftware,KiCad,Pcbnew,8.0.0*%
%TF.CreationDate,2024-06-28T18:43:35-05:00*%
%TF.ProjectId,ChessTile,43686573-7354-4696-9c65-2e6b69636164,rev?*%
%TF.SameCoordinates,Original*%
%TF.FileFunction,Copper,L1,Top*%
%TF.FilePolarity,Positive*%
%FSLAX46Y46*%
G04 Gerber Fmt 4.6, Leading zero omitted, Abs format (unit mm)*
G04 Created by KiCad (PCBNEW 8.0.0) date 2024-06-28 18:43:35*
%MOMM*%
%LPD*%
G01*
G04 APERTURE LIST*
G04 Aperture macros list*
%AMRoundRect*
0 Rectangle with rounded corners*
0 $1 Rounding radius*
0 $2 $3 $4 $5 $6 $7 $8 $9 X,Y pos of 4 corners*
0 Add a 4 corners polygon primitive as box body*
4,1,4,$2,$3,$4,$5,$6,$7,$8,$9,$2,$3,0*
0 Add four circle primitives for the rounded corners*
1,1,$1+$1,$2,$3*
1,1,$1+$1,$4,$5*
1,1,$1+$1,$6,$7*
1,1,$1+$1,$8,$9*
0 Add four rect primitives between the rounded corners*
20,1,$1+$1,$2,$3,$4,$5,0*
20,1,$1+$1,$4,$5,$6,$7,0*
20,1,$1+$1,$6,$7,$8,$9,0*
20,1,$1+$1,$8,$9,$2,$3,0*%
G04 Aperture macros list end*
%TA.AperFunction,ComponentPad*%
%ADD10C,1.600000*%
%TD*%
%TA.AperFunction,ComponentPad*%
%ADD11O,1.600000X1.600000*%
%TD*%
%TA.AperFunction,SMDPad,CuDef*%
%ADD12R,4.000000X1.500000*%
%TD*%
%TA.AperFunction,SMDPad,CuDef*%
%ADD13R,4.000000X1.300000*%
%TD*%
%TA.AperFunction,ComponentPad*%
%ADD14R,1.000000X1.800000*%
%TD*%
%TA.AperFunction,ComponentPad*%
%ADD15RoundRect,0.275000X-0.275000X-0.625000X0.275000X-0.625000X0.275000X0.625000X-0.275000X0.625000X0*%
%TD*%
%TA.AperFunction,ComponentPad*%
%ADD16RoundRect,0.225000X-0.225000X-0.775000X0.225000X-0.775000X0.225000X0.775000X-0.225000X0.775000X0*%
%TD*%
%TA.AperFunction,ViaPad*%
%ADD17C,2.000000*%
%TD*%
%TA.AperFunction,Conductor*%
%ADD18C,0.254000*%
%TD*%
G04 APERTURE END LIST*
D10*
%TO.P,R1,1*%
%TO.N,+3.3V*%
X115487500Y-106210000D03*
D11*
%TO.P,R1,2*%
%TO.N,Net-(U1-OUT)*%
X115487500Y-113830000D03*
%TD*%
D10*
%TO.P,C1,1*%
%TO.N,+3.3V*%
X105987500Y-107960000D03*
D11*
%TO.P,C1,2*%
%TO.N,GND*%
X105987500Y-115460000D03*
%TD*%
D12*
%TO.P,LEDStrip1,1,GND*%
%TO.N,GND*%
X107987500Y-121520000D03*
D13*
%TO.P,LEDStrip1,2,Din*%
%TO.N,unconnected-(LEDStrip1-Din-Pad2)*%
X107987500Y-124520000D03*
D12*
%TO.P,LEDStrip1,3,5V*%
%TO.N,+5V*%
X107987500Y-127520000D03*
%TO.P,LEDStrip1,4,GND*%
%TO.N,GND*%
X123987500Y-121520000D03*
%TO.P,LEDStrip1,5,Dout*%
%TO.N,unconnected-(LEDStrip1-Dout-Pad5)*%
X123987500Y-124520000D03*
%TO.P,LEDStrip1,6,5V*%
%TO.N,+5V*%
X123987500Y-127520000D03*
%TD*%
D14*
%TO.P,U1,1,VCC*%
%TO.N,+3.3V*%
X123237500Y-109920000D03*
D15*
%TO.P,U1,2,GND*%
%TO.N,GND*%
X125507500Y-107850000D03*
D16*
%TO.P,U1,3,OUT*%
%TO.N,Net-(U1-OUT)*%
X127737500Y-109920000D03*
%TD*%
D17*
%TO.N,Net-(U1-OUT)*%
X130500000Y-116000000D03*
%TO.N,GND*%
X129487500Y-102020000D03*
%TO.N,+3.3V*%
X130487500Y-119020000D03*
%TO.N,unconnected-(LEDStrip1-Dout-Pad5)*%
X129987500Y-124520000D03*
%TO.N,+5V*%
X107987500Y-130020000D03*
%TO.N,unconnected-(LEDStrip1-Din-Pad2)*%
X101487500Y-124520000D03*
%TD*%
D18*
%TO.N,Net-(U1-OUT)*%
X127500000Y-114000000D02*
X129500000Y-116000000D01*
X129500000Y-116000000D02*
X130500000Y-116000000D01*
X127500000Y-113830000D02*
X128677500Y-113830000D01*
X115487500Y-113830000D02*
X127500000Y-113830000D01*
X127500000Y-113830000D02*
X127500000Y-114000000D01*
%TO.N,GND*%
X125507500Y-108230000D02*
X125507500Y-104730000D01*
X107987500Y-121520000D02*
X122987500Y-121520000D01*
X105987500Y-115460000D02*
X107987500Y-117460000D01*
X101487500Y-113520000D02*
X103427500Y-115460000D01*
X129487500Y-102020000D02*
X127797500Y-103710000D01*
X125487500Y-103710000D02*
X104987500Y-103710000D01*
X103427500Y-115460000D02*
X105987500Y-115460000D01*
X125507500Y-104730000D02*
X124487500Y-103710000D01*
X101487500Y-107210000D02*
X101487500Y-113520000D01*
X107987500Y-117460000D02*
X107987500Y-121520000D01*
X127797500Y-103710000D02*
X125487500Y-103710000D01*
X104987500Y-103710000D02*
X101487500Y-107210000D01*
%TO.N,+3.3V*%
X105987500Y-107960000D02*
X109987500Y-107960000D01*
X130487500Y-119020000D02*
X127987500Y-119020000D01*
X120947500Y-106210000D02*
X115487500Y-106210000D01*
X123237500Y-108500000D02*
X120947500Y-106210000D01*
X113487500Y-117710000D02*
X109987500Y-114210000D01*
X109987500Y-109960000D02*
X111987500Y-107960000D01*
X123237500Y-109520000D02*
X123237500Y-108500000D01*
X109987500Y-107960000D02*
X111487500Y-107960000D01*
X111487500Y-107960000D02*
X113737500Y-107960000D01*
X127987500Y-119020000D02*
X126677500Y-117710000D01*
X109987500Y-114210000D02*
X109987500Y-109960000D01*
X113737500Y-107960000D02*
X115487500Y-106210000D01*
X111987500Y-107960000D02*
X113487500Y-107960000D01*
X126677500Y-117710000D02*
X113487500Y-117710000D01*
%TO.N,unconnected-(LEDStrip1-Dout-Pad5)*%
X123987500Y-124520000D02*
X129987500Y-124520000D01*
%TO.N,+5V*%
X107987500Y-130020000D02*
X107987500Y-127520000D01*
X107987500Y-127520000D02*
X122987500Y-127520000D01*
%TO.N,unconnected-(LEDStrip1-Din-Pad2)*%
X107987500Y-124520000D02*
X101487500Y-124520000D01*
%TO.N,Net-(U1-OUT)*%
X128677500Y-113830000D02*
X129297500Y-113210000D01*
X129297500Y-113210000D02*
X129297500Y-111080000D01*
X129297500Y-111080000D02*
X127717500Y-109500000D01*
%TD*%
M02*
